<svg xmlns="http://www.w3.org/2000/svg" xmlns:xlink="http://www.w3.org/1999/xlink" width="500" zoomAndPan="magnify" viewBox="0 0 375 374.999991" height="500" preserveAspectRatio="xMidYMid meet" version="1.0"><defs><clipPath id="6f6e0bf007"><path d="M 187.5 0 C 83.945312 0 0 83.945312 0 187.5 C 0 291.054688 83.945312 375 187.5 375 C 291.054688 375 375 291.054688 375 187.5 C 375 83.945312 291.054688 0 187.5 0 Z M 187.5 0 " clip-rule="nonzero"/></clipPath><clipPath id="cb39ca8078"><path d="M 78.316406 154.097656 L 297 154.097656 L 297 268 L 78.316406 268 Z M 78.316406 154.097656 " clip-rule="nonzero"/></clipPath><clipPath id="9f7dcb6d6f"><path d="M 262.832031 189.769531 C 265.039062 189.769531 267.246094 190.039062 269.40625 190.578125 C 273.925781 191.699219 275.695312 194.660156 274.648438 199.230469 C 273.265625 205.253906 269.53125 209.824219 265.132812 213.859375 C 259.519531 218.996094 253.28125 223.132812 245.480469 224.082031 C 245.039062 224.136719 244.589844 224.15625 244.132812 224.15625 C 242.652344 224.15625 241.066406 223.929688 239.152344 223.84375 C 244.726562 214.324219 248.960938 204.074219 251.722656 193.394531 C 252.097656 192.4375 252.847656 191.683594 253.804688 191.3125 C 256.722656 190.285156 259.777344 189.769531 262.832031 189.769531 Z M 181.953125 163.5 C 203.316406 163.847656 218.472656 164.1875 233.347656 167.496094 C 236.304688 168.21875 239.183594 169.21875 241.953125 170.484375 C 243.714844 171.234375 245.089844 172.53125 244.789062 174.867188 C 242.84375 190.054688 238.980469 204.621094 230.46875 217.59375 C 222.511719 229.71875 212.097656 238.730469 197.5 241.671875 C 194.273438 242.324219 191.136719 242.640625 188.09375 242.640625 C 175.917969 242.640625 165.203125 237.59375 155.828125 228.761719 C 142.472656 216.179688 136.140625 199.96875 132.835938 182.335938 L 131.761719 175.695312 C 131.238281 173.066406 132.222656 171.046875 134.613281 170.316406 C 140.0625 168.660156 145.539062 166.652344 151.148438 166.011719 C 163.421875 164.609375 175.785156 163.972656 181.953125 163.5 Z M 145.953125 237.816406 C 147.4375 237.816406 148.863281 238.5 149.789062 239.703125 C 151.101562 241.25 152.714844 242.539062 154.554688 244.277344 C 146.695312 245.648438 138.882812 245.25 131.960938 248.695312 L 131.796875 249.652344 C 133.089844 250.238281 134.332031 251.175781 135.671875 251.355469 C 144.4375 252.539062 153.210938 254.003906 162.03125 254.542969 C 170.617188 255.097656 179.222656 255.375 187.816406 255.375 C 198.675781 255.375 209.53125 254.933594 220.355469 254.046875 C 226.675781 253.523438 232.949219 252.390625 239.222656 251.398438 C 240.554688 251.191406 241.800781 250.433594 243.085938 249.894531 L 243.046875 248.816406 C 236.613281 245.304688 229.214844 245.804688 222.683594 244.558594 L 228.132812 238.429688 C 228.460938 238.097656 229.144531 237.972656 229.742188 237.972656 C 229.871094 237.972656 230 237.976562 230.113281 237.988281 C 242.617188 239.089844 255.136719 240.167969 267.308594 243.4375 C 269.820312 244.09375 272.253906 245.035156 274.554688 246.246094 C 277.992188 248.089844 278.101562 250.78125 274.554688 252.324219 C 270.226562 254.246094 265.703125 255.703125 261.0625 256.667969 C 240.675781 260.734375 219.976562 261.734375 199.25 262.109375 C 194.710938 262.191406 190.167969 262.234375 185.632812 262.234375 C 165.953125 262.234375 146.308594 261.390625 126.769531 258.765625 C 119.15625 257.730469 111.671875 255.769531 104.171875 254.046875 C 102.445312 253.5625 100.828125 252.753906 99.40625 251.664062 C 97.265625 250.164062 97.261719 248.367188 99.492188 246.933594 C 101.429688 245.699219 103.582031 244.480469 105.835938 244.039062 C 115.320312 242.199219 124.847656 240.53125 134.386719 238.972656 C 137.914062 238.386719 141.53125 238.332031 145.085938 237.898438 C 145.378906 237.84375 145.667969 237.816406 145.953125 237.816406 Z M 186.375 154.1875 C 170.886719 154.1875 155.464844 155.285156 140.203125 158.410156 C 134.984375 159.476562 129.910156 161.40625 124.90625 163.3125 C 122.453125 164.246094 120.683594 166.09375 120.9375 169.320312 C 122.324219 186.960938 126.328125 203.871094 134.898438 219.472656 C 137.898438 224.9375 141.558594 230.042969 145.066406 235.539062 L 142.632812 235.777344 C 129.199219 237.386719 115.738281 238.789062 102.355469 240.699219 C 95.273438 241.710938 88.238281 243.378906 81.910156 247 C 79.539062 248.359375 78.324219 249.886719 78.316406 251.367188 L 78.316406 251.390625 C 78.324219 252.859375 79.523438 254.285156 81.960938 255.457031 C 86.554688 257.660156 91.375 259.363281 96.335938 260.523438 C 119.6875 265.886719 143.5 267.554688 167.347656 267.851562 C 171.382812 267.90625 175.421875 267.933594 179.464844 267.933594 C 196.753906 267.933594 214.054688 267.464844 231.328125 266.777344 C 247.355469 266.136719 263.359375 264.367188 278.960938 260.480469 C 284.0625 259.191406 289.015625 257.371094 293.742188 255.054688 C 297.722656 253.109375 297.601562 249.769531 293.742188 247.472656 C 291.203125 245.972656 288.488281 244.777344 285.671875 243.917969 C 270.746094 239.347656 255.3125 237.792969 239.863281 236.386719 L 231.199219 235.601562 L 230.941406 234.640625 C 231.941406 234.191406 233.125 233.179688 233.976562 233.179688 C 234.074219 233.179688 234.164062 233.191406 234.25 233.222656 C 237.367188 234.261719 240.421875 234.734375 243.414062 234.734375 C 249.148438 234.734375 254.65625 232.996094 259.960938 230.199219 C 272.550781 223.542969 281.664062 213.730469 284.890625 199.492188 C 287.128906 189.683594 282.605469 182.296875 272.828125 180.039062 C 268.542969 179.042969 263.953125 179.304688 259.5 179.113281 L 254.539062 179.449219 C 254.851562 176.074219 254.957031 173.109375 255.453125 170.058594 C 255.949219 167.007812 254.800781 164.859375 252.183594 163.695312 C 248.597656 162.09375 244.941406 160.476562 241.175781 159.503906 C 228.089844 156.109375 214.683594 155.03125 201.234375 154.492188 C 196.28125 154.300781 191.324219 154.1875 186.375 154.1875 Z M 186.375 154.1875 " clip-rule="nonzero"/></clipPath><clipPath id="26d8afb2fa"><path d="M 149.242188 40.1875 L 217.480469 40.1875 L 217.480469 148.1875 L 149.242188 148.1875 Z M 149.242188 40.1875 " clip-rule="nonzero"/></clipPath><clipPath id="5fda1423ad"><path d="M 203.210938 40.191406 C 204.425781 42.515625 206.09375 44.875 206.941406 47.5 C 208.691406 52.945312 206.832031 57.933594 204.140625 62.628906 C 200.03125 69.777344 194.347656 75.644531 188.484375 81.316406 C 180.039062 89.464844 171.34375 97.359375 162.996094 105.601562 C 157.765625 110.765625 152.984375 116.390625 150.476562 123.515625 C 148.710938 128.554688 149.273438 133.277344 152.742188 137.414062 C 157.648438 143.273438 164.421875 146.019531 171.605469 148.171875 C 171.363281 147.523438 170.726562 147.3125 170.285156 146.898438 C 161.609375 138.855469 160.289062 130.351562 166.988281 120.535156 C 170.527344 115.328125 174.867188 110.5625 179.359375 106.113281 C 186.289062 99.242188 193.898438 93.050781 200.75 86.113281 C 205.566406 81.238281 210.164062 75.964844 213.867188 70.226562 C 220.859375 59.417969 217.203125 47.773438 203.210938 40.191406 Z M 203.210938 40.191406 " clip-rule="nonzero"/></clipPath><clipPath id="ba3b1015b0"><path d="M 114 267 L 261 267 L 261 276.070312 L 114 276.070312 Z M 114 267 " clip-rule="nonzero"/></clipPath><clipPath id="380dd6957a"><path d="M 114.121094 267.007812 L 116.691406 268.199219 C 122.148438 269.605469 127.554688 271.378906 133.105469 272.21875 C 150.636719 274.878906 168.21875 276.0625 185.824219 276.066406 L 186.082031 276.066406 C 199.4375 276.0625 212.808594 275.378906 226.175781 274.144531 C 236.125 273.226562 245.945312 270.902344 255.796875 269.089844 C 257.554688 268.761719 259.191406 267.765625 260.882812 267.082031 C 236.605469 269.660156 212.230469 270.949219 187.855469 270.949219 C 163.242188 270.949219 138.632812 269.636719 114.121094 267.007812 Z M 114.121094 267.007812 " clip-rule="nonzero"/></clipPath><clipPath id="69fa1ca9a2"><path d="M 177 90.695312 L 215.332031 90.695312 L 215.332031 148.1875 L 177 148.1875 Z M 177 90.695312 " clip-rule="nonzero"/></clipPath><clipPath id="20833b947a"><path d="M 208.410156 90.726562 C 216.320312 96.796875 217.332031 104.296875 211.058594 110.886719 C 206.449219 115.726562 201.015625 119.785156 196.054688 124.304688 C 193.542969 126.589844 191.003906 128.925781 188.949219 131.597656 C 184.917969 136.835938 185.183594 141.597656 189.304688 146.789062 L 190.378906 148.085938 C 185.957031 147.84375 178.6875 142.339844 177.53125 138.402344 C 176.613281 135.402344 177.320312 132.136719 179.414062 129.796875 C 182.792969 125.875 186.460938 122.1875 190.21875 118.621094 C 194.375 114.679688 198.796875 111.015625 203.03125 107.148438 C 204.324219 105.902344 205.507812 104.546875 206.5625 103.101562 C 209.277344 99.570312 210.6875 95.757812 208.410156 90.726562 " clip-rule="nonzero"/></clipPath><clipPath id="7b6e0171b2"><path d="M 200.285156 117.023438 L 221.78125 117.023438 L 221.78125 149 L 200.285156 149 Z M 200.285156 117.023438 " clip-rule="nonzero"/></clipPath><clipPath id="2660a271ad"><path d="M 218.390625 117.417969 C 221.695312 120.105469 222.570312 123.25 220.496094 126.125 C 218.742188 128.558594 216.378906 130.558594 214.191406 132.652344 L 209.476562 136.65625 C 204.941406 140.824219 204.554688 142.882812 206.875 148.726562 C 205.183594 147.523438 203.296875 146.515625 201.859375 145.0625 C 199.746094 142.910156 200.003906 139.941406 202.683594 137.148438 C 205.527344 134.183594 208.71875 131.550781 211.753906 128.757812 L 215.277344 125.449219 C 217.34375 123.339844 218.945312 121.003906 218.390625 117.417969 " clip-rule="nonzero"/></clipPath><clipPath id="fbdfba0998"><path d="M 138.496094 166.457031 L 237.898438 166.457031 L 237.898438 182.578125 L 138.496094 182.578125 Z M 138.496094 166.457031 " clip-rule="nonzero"/></clipPath><clipPath id="d432d8343a"><path d="M 183.101562 166.695312 C 202.433594 167.113281 216.59375 167.375 230.492188 170.601562 C 231.707031 170.882812 233.015625 171.097656 234.0625 171.710938 C 235.433594 172.511719 236.589844 173.679688 237.828125 174.691406 C 236.53125 175.675781 235.375 177.015625 233.914062 177.558594 C 231.3125 178.527344 228.617188 179.226562 225.875 179.648438 C 206.566406 182.671875 187.140625 183.09375 167.703125 181.554688 C 160.488281 180.984375 153.328125 179.726562 146.152344 178.703125 C 144.8125 178.546875 143.511719 178.148438 142.316406 177.523438 C 140.933594 176.738281 139.769531 175.554688 138.511719 174.542969 C 139.738281 173.597656 140.832031 172.210938 142.214844 171.796875 C 146.058594 170.65625 149.988281 169.5 153.957031 169.105469 C 165.367188 167.960938 176.804688 167.195312 183.101562 166.695312 " clip-rule="nonzero"/></clipPath><clipPath id="4f19018629"><path d="M 185.242188 185.261719 L 235 185.261719 L 235 233.621094 L 185.242188 233.621094 Z M 185.242188 185.261719 " clip-rule="nonzero"/></clipPath><clipPath id="93c1f2cb66"><path d="M 199.160156 233.269531 L 202.882812 230.789062 C 212.355469 224.007812 213.835938 213.957031 206.761719 204.613281 C 201.917969 198.230469 195.460938 193.953125 188.46875 190.378906 C 187.625 189.945312 186.785156 189.496094 185.449219 188.796875 C 202.203125 188.746094 218.363281 188.855469 234.992188 185.460938 C 233.289062 190.386719 231.890625 195.058594 230.070312 199.558594 C 226.09375 209.433594 221.058594 218.691406 213.226562 226.132812 C 209.289062 229.875 204.808594 232.667969 199.160156 233.269531 " clip-rule="nonzero"/></clipPath><clipPath id="5aada1ac57"><path d="M 138.496094 184.1875 L 163.75 184.1875 L 163.75 232.546875 L 138.496094 232.546875 Z M 138.496094 184.1875 " clip-rule="nonzero"/></clipPath><clipPath id="43e4e8ba7b"><path d="M 163.640625 232.179688 C 150.320312 218.9375 144.003906 202.050781 138.535156 184.296875 C 141.703125 185.078125 144.386719 185.667969 147.019531 186.449219 C 147.582031 186.785156 147.953125 187.371094 148.007812 188.019531 C 148.007812 204.015625 154.316406 217.78125 162.851562 230.789062 L 163.640625 232.179688 " clip-rule="nonzero"/></clipPath></defs><g clip-path="url(#6f6e0bf007)"><rect x="-37.5" width="450" fill="#ffffff" y="-37.499999" height="449.999989" fill-opacity="1"/></g><g clip-path="url(#cb39ca8078)"><g clip-path="url(#9f7dcb6d6f)"><path fill="#4c5454" d="M 75.628906 37.5 L 299.152344 37.5 L 299.152344 278.757812 L 75.628906 278.757812 Z M 75.628906 37.5 " fill-opacity="1" fill-rule="nonzero"/></g></g><g clip-path="url(#26d8afb2fa)"><g clip-path="url(#5fda1423ad)"><path fill="#907ad6" d="M 75.628906 37.5 L 299.152344 37.5 L 299.152344 278.757812 L 75.628906 278.757812 Z M 75.628906 37.5 " fill-opacity="1" fill-rule="nonzero"/></g></g><g clip-path="url(#ba3b1015b0)"><g clip-path="url(#380dd6957a)"><path fill="#907ad6" d="M 75.628906 37.5 L 299.152344 37.5 L 299.152344 278.757812 L 75.628906 278.757812 Z M 75.628906 37.5 " fill-opacity="1" fill-rule="nonzero"/></g></g><g clip-path="url(#69fa1ca9a2)"><g clip-path="url(#20833b947a)"><path fill="#f9cb40" d="M 75.628906 37.5 L 299.152344 37.5 L 299.152344 278.757812 L 75.628906 278.757812 Z M 75.628906 37.5 " fill-opacity="1" fill-rule="nonzero"/></g></g><g clip-path="url(#7b6e0171b2)"><g clip-path="url(#2660a271ad)"><path fill="#4c5454" d="M 75.628906 37.5 L 299.152344 37.5 L 299.152344 278.757812 L 75.628906 278.757812 Z M 75.628906 37.5 " fill-opacity="1" fill-rule="nonzero"/></g></g><g clip-path="url(#fbdfba0998)"><g clip-path="url(#d432d8343a)"><path fill="#907ad6" d="M 75.628906 37.5 L 299.152344 37.5 L 299.152344 278.757812 L 75.628906 278.757812 Z M 75.628906 37.5 " fill-opacity="1" fill-rule="nonzero"/></g></g><g clip-path="url(#4f19018629)"><g clip-path="url(#93c1f2cb66)"><path fill="#f9cb40" d="M 75.628906 37.5 L 299.152344 37.5 L 299.152344 278.757812 L 75.628906 278.757812 Z M 75.628906 37.5 " fill-opacity="1" fill-rule="nonzero"/></g></g><g clip-path="url(#5aada1ac57)"><g clip-path="url(#43e4e8ba7b)"><path fill="#f9cb40" d="M 75.628906 37.5 L 299.152344 37.5 L 299.152344 278.757812 L 75.628906 278.757812 Z M 75.628906 37.5 " fill-opacity="1" fill-rule="nonzero"/></g></g></svg>